<svg version="1.0" xmlns="http://www.w3.org/2000/svg"
 width="512" height="512" viewBox="0 0 512 512"
 preserveAspectRatio="xMidYMid meet">

<circle cx="256" cy="256" r="256" fill="#0052a2"/>

<g transform="translate(0,512) scale(0.100000,-0.100000)"
fill="#ffffff" stroke="none">
<path d="M1881 4119 c-33 -31 -51 -81 -51 -141 1 -100 13 -116 378 -475 l337
-332 -786 -788 c-879 -881 -828 -822 -837 -978 -9 -169 84 -323 237 -393 49
-23 70 -26 161 -26 188 -1 121 -57 1020 840 l775 774 205 -206 c113 -113 222
-214 242 -225 21 -11 58 -22 83 -26 84 -11 111 8 332 229 215 217 230 239 221
322 -9 80 -37 116 -249 331 l-208 210 32 65 c30 60 32 71 32 170 -1 92 -4 112
-27 162 -94 203 -345 297 -540 200 l-63 -31 -150 149 c-88 87 -160 151 -175
154 -20 4 -855 37 -926 36 -11 0 -31 -10 -43 -21z m599 -130 l325 -11 518
-517 c509 -509 517 -517 517 -556 0 -38 -7 -47 -182 -222 -176 -176 -184 -183
-223 -183 -39 0 -47 7 -757 718 -704 703 -718 718 -718 756 l0 39 98 -7 c53
-3 243 -11 422 -17z m1580 -1285 c9 -26 8 -39 -4 -61 -21 -41 -359 -373 -380
-373 -28 0 -88 36 -124 73 l-33 34 33 21 c41 26 381 368 398 401 l12 23 44
-43 c24 -24 49 -58 54 -75z"/>
</g>
</svg>
